# xmcd
# 
# Track frame offsets:
#     150
#     21910
#     40220
#     57642
#     75797
#     99102
#     117425
#     137810
#     159455
#     177165
#     192890
#     210155
#     233655
# 
# Disc length: 3326
# 
# Revision: 14
# Processed by: cddbd v1.5.2PL0 Copyright (c) Steve Scherf et al.
# Submitted via: fre:ac v1.0.27
# 
DISCID=9c0cfc0d
DTITLE=安室 奈美恵 - DANCE TRACKS VOL.1
DYEAR=1995
DGENRE=J-POP
TTITLE0=01-GO! GO! ～夢の速さで～
TTITLE1=02-TRY ME ～私を信じて～ (NEW ALBUM MIX)
TTITLE2=03-Stop the music (NEW ALBUM MIX)
TTITLE3=04-GET MY SHININ'
TTITLE4=05-わがままを許して (GROOVY MIX)
TTITLE5=06-愛してマスカット (GROOVY MIX)
TTITLE6=07-PARADISE TRAIN (GROOVY MIX)
TTITLE7=08-DANCING JUNK (GROOVY MIX)
TTITLE8=09-Super Luck!
TTITLE9=10-ハートに火をつけて (NEW ALBUM MIX)
TTITLE10=11-太陽のSEASON (NEW ALBUM MIX)
TTITLE11=12-TRY ME ～私を信じて～ (EXTENDED VERSION)
TTITLE12=13-太陽のSEASON (SALSOULIKE MIX)
EXTD=YEAR: 1995
EXTT0=
EXTT1=
EXTT2=
EXTT3=
EXTT4=
EXTT5=
EXTT6=
EXTT7=
EXTT8=
EXTT9=
EXTT10=
EXTT11=
EXTT12=
PLAYORDER=
